<svg xmlns="http://www.w3.org/2000/svg" xmlns:xlink="http://www.w3.org/1999/xlink" width="1384pt" height="227pt" viewBox="0.00 0.00 1384.00 227.00">
<g id="graph0" class="graph" transform="scale(1 1) rotate(0) translate(4 223)">
<!-- A1
CSTR&#45;&gt;A2
CSTR -->
<g id="edge4" class="edge">
<title>A1
CSTR:c-&gt;A2
CSTR:c</title>
<path fill="none" stroke="#90918e" stroke-width="2.2" d="M156.06,-106.46C158.73,-108.68 161.42,-110.89 164,-113 172.99,-120.34 182.79,-128.2 191.87,-135.44"/>
<polygon fill="#90918e" stroke="#90918e" stroke-width="2.2" points="189.95,-138.39 199.96,-141.87 194.31,-132.91 189.95,-138.39"/>
<g id="a_edge4-label"><a xlink:title="Temperature: 293 K
Pressure: 101325 Pa
Liquid flow: 4.28e+04 kmol/hr">
<text text-anchor="middle" x="178" y="-137.8" font-family="Arial" font-size="14.00" fill="#90918e"> ws1</text>
</a>
</g>
</g>
<!-- A2
CSTR&#45;&gt;O1
CSTR -->
<g id="edge9" class="edge">
<title>A2
CSTR:c-&gt;O1
CSTR:c</title>
<path fill="none" stroke="#90918e" stroke-width="2.2" d="M253.46,-162C263.7,-162 275.64,-162 286.68,-162"/>
<polygon fill="#90918e" stroke="#90918e" stroke-width="2.2" points="286.9,-165.5 296.9,-162 286.9,-158.5 286.9,-165.5"/>
<g id="a_edge9-label"><a xlink:title="Temperature: 293 K
Pressure: 101325 Pa
Liquid flow: 4.28e+04 kmol/hr">
<text text-anchor="middle" x="275" y="-165.8" font-family="Arial" font-size="14.00" fill="#90918e"> ws3</text>
</a>
</g>
</g>
<!-- O1
CSTR&#45;&gt;O2
CSTR -->
<g id="edge1" class="edge">
<title>O1
CSTR:c-&gt;O2
CSTR:c</title>
<path fill="none" stroke="#90918e" stroke-width="2.2" d="M350.25,-162C361.71,-162 375.39,-162 387.82,-162"/>
<polygon fill="#90918e" stroke="#90918e" stroke-width="2.2" points="387.88,-165.5 397.88,-162 387.88,-158.5 387.88,-165.5"/>
<g id="a_edge1-label"><a xlink:title="Temperature: 293 K
Pressure: 101325 Pa
Liquid flow: 4.28e+04 kmol/hr">
<text text-anchor="middle" x="374" y="-165.8" font-family="Arial" font-size="14.00" fill="#90918e"> ws5</text>
</a>
</g>
</g>
<!-- O2
CSTR&#45;&gt;O3
CSTR -->
<g id="edge5" class="edge">
<title>O2
CSTR:c-&gt;O3
CSTR:c</title>
<path fill="none" stroke="#90918e" stroke-width="2.2" d="M451.46,-162C461.7,-162 473.64,-162 484.68,-162"/>
<polygon fill="#90918e" stroke="#90918e" stroke-width="2.2" points="484.9,-165.5 494.9,-162 484.9,-158.5 484.9,-165.5"/>
<g id="a_edge5-label"><a xlink:title="Temperature: 293 K
Pressure: 101325 Pa
Liquid flow: 4.28e+04 kmol/hr">
<text text-anchor="middle" x="473" y="-165.8" font-family="Arial" font-size="14.00" fill="#90918e"> ws7</text>
</a>
</g>
</g>
<!-- O3
CSTR&#45;&gt;C1
Flat bottom circular clarifier -->
<g id="edge14" class="edge">
<title>O3
CSTR:c-&gt;C1
Flat bottom circular clarifier:c</title>
<path fill="none" stroke="#90918e" stroke-width="1.6" d="M548.09,-153.28C568.47,-146.33 598.06,-136.24 625.61,-126.85"/>
<polygon fill="#90918e" stroke="#90918e" stroke-width="1.6" points="626.91,-130.1 635.25,-123.56 624.66,-123.48 626.91,-130.1"/>
<g id="a_edge14-label"><a xlink:title="Temperature: 293 K
Pressure: 101325 Pa
Liquid flow: 1.71e+04 kmol/hr">
<text text-anchor="middle" x="579" y="-153.8" font-family="Arial" font-size="14.00" fill="#90918e"> treated</text>
</a>
</g>
</g>
<!-- O3
CSTR&#45;&gt;M1
Mixer -->
<g id="edge7" class="edge">
<title>O3
CSTR:c-&gt;M1
Mixer:c</title>
<path fill="none" stroke="#90918e" stroke-width="1.6" d="M548.28,-172.17C582.18,-184.6 643.84,-204 698.5,-204 698.5,-204 698.5,-204 1229,-204 1281.84,-204 1318.63,-145.67 1336.86,-108.07"/>
<polygon fill="#90918e" stroke="#90918e" stroke-width="1.6" points="1340.25,-109.09 1341.3,-98.54 1333.9,-106.13 1340.25,-109.09"/>
<g id="a_edge7-label"><a xlink:title="Temperature: 293 K
Pressure: 101325 Pa
Liquid flow: 2.57e+04 kmol/hr">
<text text-anchor="middle" x="975.5" y="-207.8" font-family="Arial" font-size="14.00" fill="#90918e"> RWW</text>
</a>
</g>
</g>
<!-- C1
Flat bottom circular clarifier&#45;&gt;A1
CSTR -->
<g id="edge12" class="edge">
<title>C1
Flat bottom circular clarifier:c-&gt;A1
CSTR:c</title>
<path fill="none" stroke="#90918e" stroke-width="1.6" d="M609.58,-90.05C581.75,-87.22 550.9,-85 522.5,-85 225.5,-85 225.5,-85 225.5,-85 206.01,-85 184.28,-85 166.52,-85"/>
<polygon fill="#90918e" stroke="#90918e" stroke-width="1.6" points="166.31,-81.5 156.31,-85 166.31,-88.5 166.31,-81.5"/>
<g id="a_edge12-label"><a xlink:title="Temperature: 293 K
Pressure: 101325 Pa
Liquid flow: 4.27e+04 kmol/hr">
<text text-anchor="middle" x="374" y="-88.8" font-family="Arial" font-size="14.00" fill="#90918e"> RAS</text>
</a>
</g>
</g>
<!-- C1
Flat bottom circular clarifier&#45;&gt;J1
ASMto ADM -->
<g id="edge15" class="edge">
<title>C1
Flat bottom circular clarifier:c-&gt;J1
ASMto ADM:c</title>
<path fill="none" stroke="#90918e" stroke-width="1.6" d="M789.02,-83.1C791.7,-82.7 794.37,-82.33 797,-82 812.52,-80.03 829.44,-78.82 845,-78.08"/>
<polygon fill="#90918e" stroke="#90918e" stroke-width="1.6" points="845.15,-81.58 855,-77.66 844.86,-74.59 845.15,-81.58"/>
<g id="a_edge15-label"><a xlink:title="Temperature: 293 K
Pressure: 101325 Pa
Liquid flow: 891 kmol/hr">
<text text-anchor="middle" x="822" y="-85.8" font-family="Arial" font-size="14.00" fill="#90918e"> WAS</text>
</a>
</g>
</g>
<!-- C1
Flat bottom circular clarifier&#45;&gt; Effluent -->
<g id="edge3" class="edge">
<title>C1
Flat bottom circular clarifier:c-&gt; Effluent:w</title>
<path fill="none" stroke="#90918e" d="M771.2,-123.52C808.29,-132.99 854.7,-142 897,-142"/>
<g id="a_edge3-label"><a xlink:title="Temperature: 293 K
Pressure: 101325 Pa
Liquid flow: -2.65e+04 kmol/hr">
<text text-anchor="middle" x="822" y="-140.8" font-family="Arial" font-size="14.00" fill="#90918e"> Effluent</text>
</a>
</g>
</g>
<!-- J1
ASMto ADM&#45;&gt;AD1
Anaerobic CSTR -->
<g id="edge8" class="edge">
<title>J1
ASMto ADM:c-&gt;AD1
Anaerobic CSTR:c</title>
<path fill="none" stroke="#90918e" d="M947.42,-77C961.82,-77 978.07,-77 993.71,-77"/>
<polygon fill="#90918e" stroke="#90918e" points="993.88,-80.5 1003.88,-77 993.88,-73.5 993.88,-80.5"/>
<g id="a_edge8-label"><a xlink:title="Temperature: 293 K
Pressure: 101325 Pa
Liquid flow: 891 kmol/hr">
<text text-anchor="middle" x="975.5" y="-80.8" font-family="Arial" font-size="14.00" fill="#90918e"> ws11</text>
</a>
</g>
</g>
<!-- AD1
Anaerobic CSTR&#45;&gt;J2
ADMto ASM -->
<g id="edge13" class="edge">
<title>AD1
Anaerobic CSTR:c-&gt;J2
ADMto ASM:c</title>
<path fill="none" stroke="#90918e" d="M1122.39,-77C1138.42,-77 1155.76,-77 1171.62,-77"/>
<polygon fill="#90918e" stroke="#90918e" points="1171.8,-80.5 1181.8,-77 1171.8,-73.5 1171.8,-80.5"/>
<g id="a_edge13-label"><a xlink:title="Temperature: 293 K
Pressure: 101325 Pa
Liquid flow: 891 kmol/hr">
<text text-anchor="middle" x="1152" y="-80.8" font-family="Arial" font-size="14.00" fill="#90918e"> ad eff</text>
</a>
</g>
</g>
<!-- AD1
Anaerobic CSTR&#45;&gt; biogas -->
<g id="edge2" class="edge">
<title>AD1
Anaerobic CSTR:c-&gt; biogas:w</title>
<path fill="none" stroke="#90918e" d="M1096.16,-98.64C1127.41,-117.55 1176.93,-142 1224,-142"/>
<g id="a_edge2-label"><a xlink:title="Temperature: 308 K
Pressure: 101325 Pa
Gas flow: 1.27 kmol/hr">
<text text-anchor="middle" x="1152" y="-136.8" font-family="Arial" font-size="14.00" fill="#90918e"> biogas</text>
</a>
</g>
</g>
<!-- J2
ADMto ASM&#45;&gt;M1
Mixer -->
<g id="edge11" class="edge">
<title>J2
ADMto ASM:c-&gt;M1
Mixer:c</title>
<path fill="none" stroke="#90918e" d="M1274.06,-77C1287.81,-77 1302.7,-77 1315.63,-77"/>
<polygon fill="#90918e" stroke="#90918e" points="1315.95,-80.5 1325.95,-77 1315.95,-73.5 1315.95,-80.5"/>
<g id="a_edge11-label"><a xlink:title="Temperature: 293 K
Pressure: 101325 Pa
Liquid flow: 891 kmol/hr">
<text text-anchor="middle" x="1300" y="-80.8" font-family="Arial" font-size="14.00" fill="#90918e"> ws14</text>
</a>
</g>
</g>
<!-- M1
Mixer&#45;&gt;A1
CSTR -->
<g id="edge10" class="edge">
<title>M1
Mixer:c-&gt;A1
CSTR:c</title>
<path fill="none" stroke="#90918e" stroke-width="1.6" d="M1330.98,-55.14C1308.94,-32.38 1270.33,0 1229,0 225.5,0 225.5,0 225.5,0 191.79,0 164.57,-30.08 148.04,-54.46"/>
<polygon fill="#90918e" stroke="#90918e" stroke-width="1.6" points="144.94,-52.81 142.45,-63.11 150.82,-56.61 144.94,-52.81"/>
<g id="a_edge10-label"><a xlink:title="Temperature: 293 K
Pressure: 101325 Pa
Liquid flow: 2.66e+04 kmol/hr">
<text text-anchor="middle" x="579" y="-3.8" font-family="Arial" font-size="14.00" fill="#90918e"> ws15</text>
</a>
</g>
</g>
<!--  Wastewater&#45;&gt;A1
CSTR -->
<g id="edge6" class="edge">
<title> Wastewater:e-&gt;A1
CSTR:c</title>
<path fill="none" stroke="#90918e" stroke-width="2.2" d="M11,-85C42.62,-85 79.02,-85 102.83,-85"/>
<g id="a_edge6-label"><a xlink:title="Temperature: 293 K
Pressure: 101325 Pa
Liquid flow: 4.29e+04 kmol/hr">
<text text-anchor="middle" x="57" y="-88.8" font-family="Arial" font-size="14.00" fill="#90918e"> Wastewater</text>
</a>
</g>
</g>
<!-- A1
CSTR -->
<g id="node1" class="node">
<title>A1
CSTR</title>
<g id="a_node1"><a xlink:title="No capital costs or utilities">
<polygon fill="#555f69" stroke="#90918e" points="156,-106.5 103,-106.5 103,-63.5 156,-63.5 156,-106.5"/>
<text text-anchor="middle" x="129.5" y="-88.8" font-family="Arial" font-size="14.00" fill="white">A1</text>
<text text-anchor="middle" x="129.5" y="-73.8" font-family="Arial" font-size="14.00" fill="white">CSTR</text>
</a>
</g>
</g>
<!-- A2
CSTR -->
<g id="node2" class="node">
<title>A2
CSTR</title>
<g id="a_node2"><a xlink:title="No capital costs or utilities">
<polygon fill="#555f69" stroke="#90918e" points="253,-183.5 200,-183.5 200,-140.5 253,-140.5 253,-183.5"/>
<text text-anchor="middle" x="226.5" y="-165.8" font-family="Arial" font-size="14.00" fill="white">A2</text>
<text text-anchor="middle" x="226.5" y="-150.8" font-family="Arial" font-size="14.00" fill="white">CSTR</text>
</a>
</g>
</g>
<!-- O1
CSTR -->
<g id="node3" class="node">
<title>O1
CSTR</title>
<g id="a_node3"><a xlink:title="No capital costs or utilities">
<polygon fill="#555f69" stroke="#90918e" points="350,-183.5 297,-183.5 297,-140.5 350,-140.5 350,-183.5"/>
<text text-anchor="middle" x="323.5" y="-165.8" font-family="Arial" font-size="14.00" fill="white">O1</text>
<text text-anchor="middle" x="323.5" y="-150.8" font-family="Arial" font-size="14.00" fill="white">CSTR</text>
</a>
</g>
</g>
<!-- O2
CSTR -->
<g id="node4" class="node">
<title>O2
CSTR</title>
<g id="a_node4"><a xlink:title="No capital costs or utilities">
<polygon fill="#555f69" stroke="#90918e" points="451,-183.5 398,-183.5 398,-140.5 451,-140.5 451,-183.5"/>
<text text-anchor="middle" x="424.5" y="-165.8" font-family="Arial" font-size="14.00" fill="white">O2</text>
<text text-anchor="middle" x="424.5" y="-150.8" font-family="Arial" font-size="14.00" fill="white">CSTR</text>
</a>
</g>
</g>
<!-- O3
CSTR -->
<g id="node5" class="node">
<title>O3
CSTR</title>
<g id="a_node5"><a xlink:title="No capital costs or utilities">
<polygon fill="#555f69" stroke="#90918e" points="548,-183.5 495,-183.5 495,-140.5 548,-140.5 548,-183.5"/>
<text text-anchor="middle" x="521.5" y="-165.8" font-family="Arial" font-size="14.00" fill="white">O3</text>
<text text-anchor="middle" x="521.5" y="-150.8" font-family="Arial" font-size="14.00" fill="white">CSTR</text>
</a>
</g>
</g>
<!-- C1
Flat bottom circular clarifier -->
<g id="node6" class="node">
<title>C1
Flat bottom circular clarifier</title>
<g id="a_node6"><a xlink:title="No capital costs or utilities">
<polygon fill="#555f69" stroke="#90918e" points="789,-123.5 610,-123.5 610,-80.5 789,-80.5 789,-123.5"/>
<text text-anchor="middle" x="699.5" y="-105.8" font-family="Arial" font-size="14.00" fill="white">C1</text>
<text text-anchor="middle" x="699.5" y="-90.8" font-family="Arial" font-size="14.00" fill="white">Flat bottom circular clarifier</text>
</a>
</g>
</g>
<!-- J1
ASMto ADM -->
<g id="node7" class="node">
<title>J1
ASMto ADM</title>
<g id="a_node7"><a xlink:title="No capital costs or utilities">
<polygon fill="#555f69" stroke="#90918e" points="947,-98.5 855,-98.5 855,-55.5 947,-55.5 947,-98.5"/>
<text text-anchor="middle" x="901" y="-80.8" font-family="Arial" font-size="14.00" fill="white">J1</text>
<text text-anchor="middle" x="901" y="-65.8" font-family="Arial" font-size="14.00" fill="white">ASMto ADM</text>
</a>
</g>
</g>
<!-- AD1
Anaerobic CSTR -->
<g id="node8" class="node">
<title>AD1
Anaerobic CSTR</title>
<g id="a_node8"><a xlink:title="No capital costs or utilities">
<polygon fill="#555f69" stroke="#90918e" points="1122,-98.5 1004,-98.5 1004,-55.5 1122,-55.5 1122,-98.5"/>
<text text-anchor="middle" x="1063" y="-80.8" font-family="Arial" font-size="14.00" fill="white">AD1</text>
<text text-anchor="middle" x="1063" y="-65.8" font-family="Arial" font-size="14.00" fill="white">Anaerobic CSTR</text>
</a>
</g>
</g>
<!-- J2
ADMto ASM -->
<g id="node9" class="node">
<title>J2
ADMto ASM</title>
<g id="a_node9"><a xlink:title="No capital costs or utilities">
<polygon fill="#555f69" stroke="#90918e" points="1274,-98.5 1182,-98.5 1182,-55.5 1274,-55.5 1274,-98.5"/>
<text text-anchor="middle" x="1228" y="-80.8" font-family="Arial" font-size="14.00" fill="white">J2</text>
<text text-anchor="middle" x="1228" y="-65.8" font-family="Arial" font-size="14.00" fill="white">ADMto ASM</text>
</a>
</g>
</g>
<!-- M1
Mixer -->
<g id="node10" class="node">
<title>M1
Mixer</title>
<g id="a_node10"><a xlink:title="No capital costs or utilities">
<polygon fill="#555f69" stroke="#90918e" points="1376,-98.5 1326,-98.5 1326,-55.5 1376,-55.5 1376,-98.5"/>
<text text-anchor="middle" x="1351" y="-80.8" font-family="Arial" font-size="14.00" fill="white">M1</text>
<text text-anchor="middle" x="1351" y="-65.8" font-family="Arial" font-size="14.00" fill="white">Mixer</text>
</a>
</g>
</g>
<!--  biogas -->
<g id="node11" class="node">
<title> biogas</title>
<polygon fill="#f98f60" stroke="#90918e" points="1233.5,-142 1225.25,-149 1225.25,-135 1233.5,-142"/>
</g>
<!--  Effluent -->
<g id="node12" class="node">
<title> Effluent</title>
<polygon fill="#f98f60" stroke="#90918e" points="906.5,-142 898.25,-149 898.25,-135 906.5,-142"/>
</g>
<!--  Wastewater -->
<g id="node13" class="node">
<title> Wastewater</title>
<polygon fill="#f98f60" stroke="#90918e" points="5.5,-90.5 0,-85 5.5,-79.5 11,-85 5.5,-90.5"/>
</g>
</g>
</svg>